<svg width="292" height="272" viewBox="0 0 292 272" fill="none" xmlns="http://www.w3.org/2000/svg">
<path d="M146 271.12C226.634 271.12 292 233.906 292 187.999C292 142.093 226.634 104.879 146 104.879C65.3664 104.879 0 142.093 0 187.999C0 233.906 65.3664 271.12 146 271.12Z" fill="#FF9700"/>
<path d="M43.2719 236.086C57.0082 244.3 94.5269 234.758 127.035 214.786L190.355 175.903C222.882 155.924 238.663 133.404 225.592 125.594C212.522 117.784 175.42 127.333 142.694 146.913L77.7281 185.763C44.9505 205.344 29.5355 227.878 43.2719 236.086Z" fill="#FF6B00"/>
<path d="M28.9846 159.786L34.1101 156.707C34.1101 156.707 37.1726 143.523 35.9553 131.666C34.2575 114.998 23.6605 108.714 19.6306 110.154C15.6006 111.594 14.4282 116.444 21.0977 126.377C25.0316 132.249 29.8688 144.438 28.9846 159.786Z" fill="#34A853"/>
<g opacity="0.15">
<path d="M28.9846 159.786L34.1101 156.707C34.1101 156.707 37.1726 143.523 35.9553 131.666C34.2575 114.998 23.6605 108.714 19.6306 110.154C15.6006 111.594 14.4282 116.444 21.0977 126.377C25.0316 132.249 29.8688 144.438 28.9846 159.786Z" fill="black"/>
</g>
<path d="M31.1179 153.31H31.0667C30.9745 153.291 30.8933 153.235 30.8406 153.154C30.7878 153.073 30.7678 152.974 30.7848 152.879C33.6038 137.498 28.4142 120.213 21.9945 113.02C21.9308 112.949 21.897 112.854 21.9007 112.757C21.9043 112.66 21.9449 112.569 22.0138 112.503C22.0826 112.437 22.1739 112.402 22.2676 112.405C22.3613 112.409 22.4498 112.451 22.5135 112.523C29.0549 119.821 34.347 137.412 31.4831 152.998C31.4692 153.087 31.4244 153.168 31.3572 153.225C31.29 153.283 31.205 153.313 31.1179 153.31Z" fill="white"/>
<path d="M15.5045 167.848C14.6908 168.273 12.5253 166.362 11.9231 165.89C10.8894 165.08 10.0769 164.006 9.56533 162.772C8.98541 161.377 8.83984 159.83 9.14888 158.346C9.30777 157.561 9.5219 156.79 9.78957 156.037L10.5264 153.801C10.8186 153.083 10.9669 152.311 10.962 151.532C10.8403 149.966 9.56533 148.811 8.39928 147.809C7.1179 146.708 5.78527 145.261 5.88137 143.397C6.05495 141.943 6.68795 140.59 7.68171 139.548C8.59789 138.46 9.67425 137.518 10.5071 136.363C11.1579 135.562 11.5281 134.557 11.5579 133.51C11.5075 132.865 11.3309 132.238 11.0389 131.666C10.362 130.471 9.77927 129.222 9.29624 127.93C8.91823 126.603 9.06559 124.977 10.0907 124.095C10.9364 123.365 12.1473 123.325 13.2365 123.431C14.2534 123.618 15.2194 124.03 16.0683 124.639C18.8553 126.437 20.3161 130.033 23.2953 131.46C24.4822 131.912 25.6955 132.287 26.928 132.581C28.1325 132.979 29.3434 133.696 29.8559 134.89C30.8554 137.259 28.645 139.993 29.3113 142.481C29.9008 144.684 31.8741 145.62 32.9376 147.637C33.3616 148.524 33.5008 149.528 33.3349 150.503C33.1562 152.154 32.6871 153.758 31.951 155.234C31.1183 156.75 30.1983 158.212 29.196 159.613L15.5045 167.848Z" fill="#34A853"/>
<path d="M23.3788 163.595C23.3313 163.591 23.285 163.578 23.2425 163.556C23.2001 163.533 23.1625 163.502 23.1319 163.465C23.1014 163.427 23.0786 163.383 23.0648 163.336C23.0511 163.288 23.0468 163.239 23.0521 163.19C24.3335 148.592 18.4712 132.004 13.8518 127.074C13.8181 127.04 13.7912 127 13.7729 126.956C13.7546 126.911 13.7451 126.863 13.7451 126.815C13.7451 126.767 13.7546 126.719 13.7729 126.674C13.7912 126.63 13.8181 126.59 13.8518 126.556C13.919 126.487 14.01 126.448 14.1049 126.448C14.1997 126.448 14.2907 126.487 14.3579 126.556C19.0734 131.612 25.0766 148.42 23.7568 163.25C23.7502 163.347 23.7069 163.438 23.6362 163.502C23.5654 163.567 23.473 163.6 23.3788 163.595Z" fill="white"/>
<path d="M21.9756 145.56H21.8731C18.5662 144.43 15.1505 143.676 11.6862 143.31C11.635 143.307 11.5853 143.292 11.5401 143.267C11.4949 143.242 11.4553 143.207 11.4239 143.165C11.3924 143.123 11.3699 143.075 11.3577 143.023C11.3455 142.972 11.3439 142.918 11.353 142.866C11.357 142.817 11.3703 142.77 11.3923 142.727C11.4142 142.684 11.4443 142.645 11.4807 142.614C11.5172 142.584 11.5592 142.561 11.6044 142.547C11.6496 142.533 11.697 142.529 11.7438 142.534C15.273 142.913 18.7514 143.692 22.1166 144.856C22.1947 144.889 22.2594 144.948 22.2993 145.025C22.3393 145.102 22.352 145.19 22.3352 145.276C22.3184 145.361 22.2732 145.438 22.2075 145.492C22.1418 145.546 22.0597 145.575 21.9756 145.573V145.56Z" fill="white"/>
<path d="M251.431 73.4804L230.467 86.0012C230.044 86.2534 229.698 85.915 229.698 85.2382C229.694 84.9161 229.762 84.5974 229.895 84.3064C230.028 84.0155 230.224 83.7599 230.467 83.5594L251.411 71.0386C256.434 68.0328 260.522 59.095 260.522 51.0596C260.522 44.7893 257.318 41.5977 253.385 43.9532C250.322 45.7846 247.83 51.2521 247.83 56.129C247.83 59.9045 249.752 61.8221 252.122 60.4088C253.929 59.3272 255.403 56.1025 255.403 53.2161C255.403 51.0464 254.294 49.9383 252.93 50.7544C251.924 51.3582 251.11 53.1498 251.11 54.7356C251.114 55.0576 251.047 55.3764 250.914 55.6673C250.781 55.9583 250.585 56.2139 250.341 56.4144C249.919 56.6665 249.579 56.3215 249.579 55.6513C249.579 52.6986 251.085 49.4008 252.93 48.2927C255.14 46.9657 256.934 48.7638 256.934 52.2739C256.934 56.5072 254.775 61.2382 252.122 62.8241C248.919 64.7417 246.299 62.1605 246.299 57.0182C246.299 50.7876 249.502 43.8205 253.385 41.4849C258.164 38.6251 262.053 42.5001 262.053 50.1108C262.072 59.5064 257.299 69.9703 251.431 73.4804Z" fill="#797979"/>
<path d="M265.84 101.382C261.932 103.718 258.754 100.546 258.754 94.3153C258.754 89.1995 261.368 83.4732 264.578 81.5556C267.23 79.9697 269.389 82.1196 269.389 86.3463C269.389 89.863 267.595 93.8044 265.385 95.1182C263.54 96.2263 262.034 94.7267 262.034 91.8005C262.028 91.4787 262.093 91.1597 262.225 90.8684C262.357 90.5771 262.553 90.3216 262.797 90.1218C263.22 89.8696 263.566 90.208 263.566 90.8848C263.566 92.4839 264.379 93.3001 265.385 92.7029C266.75 91.8868 267.858 89.4582 267.858 87.2819C267.858 84.3955 266.385 82.9291 264.578 84.0106C262.214 85.4306 260.285 89.6507 260.285 93.4195C260.285 98.3097 262.777 100.791 265.84 98.96C269.774 96.6045 272.977 89.5909 272.977 83.3139C272.977 75.3051 268.89 71.231 263.867 74.2368L224.701 97.6462C224.279 97.8984 223.939 97.5533 223.939 96.8832C223.932 96.5614 223.998 96.2423 224.13 95.9511C224.262 95.6598 224.458 95.4042 224.701 95.2044L263.892 71.7751C269.761 68.265 274.534 73.0226 274.534 82.3916C274.508 89.9957 270.619 98.5221 265.84 101.382Z" fill="#797979"/>
<path d="M247.125 70.2755L232.972 78.7356C232.549 78.9877 232.203 78.6493 232.203 77.9725C232.198 77.6502 232.264 77.331 232.398 77.0398C232.531 76.7486 232.728 76.4933 232.972 76.2938L247.125 67.8337C247.548 67.5816 247.887 67.92 247.887 68.5968C247.893 68.9184 247.827 69.2369 247.695 69.5279C247.562 69.819 247.368 70.0747 247.125 70.2755Z" fill="#797979"/>
<path d="M260.535 68.6632C260.448 68.7312 260.34 68.7617 260.232 68.748C260.124 68.7344 260.026 68.6778 259.958 68.5902C259.824 68.3137 259.761 68.0063 259.775 67.6973C259.788 67.3884 259.878 67.0881 260.035 66.8252C262.624 61.6581 264.017 55.9381 264.103 50.1175C264.098 49.7958 264.163 49.4771 264.296 49.186C264.428 48.8949 264.623 48.6392 264.866 48.4387C265.289 48.1866 265.635 48.5316 265.635 49.2018C265.537 55.7737 263.964 62.232 261.041 68.066C260.928 68.3091 260.753 68.5157 260.535 68.6632Z" fill="#797979"/>
<path d="M257.844 82.9954L241.68 92.6631C241.257 92.9152 240.917 92.5768 240.917 91.9C240.912 91.5784 240.978 91.2599 241.11 90.9689C241.242 90.6779 241.437 90.4221 241.68 90.2213L257.844 80.5602C258.267 80.3081 258.613 80.6465 258.613 81.3233C258.618 81.6445 258.551 81.9626 258.418 82.2527C258.285 82.5428 258.088 82.797 257.844 82.9954Z" fill="#797979"/>
<path d="M211.53 116.922C208.775 107.593 197.518 99.8757 186.998 102.928C185.336 103.411 183.743 104.115 182.257 105.025C172.051 111.123 163.78 125.959 163.78 138.201C163.753 140.253 164.032 142.296 164.606 144.259C167.361 153.582 178.618 161.252 189.138 158.193C190.794 157.709 192.383 157.007 193.866 156.103C204.072 149.999 212.344 135.162 212.344 122.927C212.365 120.894 212.091 118.87 211.53 116.922Z" fill="#455A64"/>
<path d="M193.866 156.084C204.072 149.979 212.343 135.142 212.343 122.907C212.343 110.671 204.066 105.748 193.866 111.846C183.666 117.944 175.369 132.813 175.369 145.022C175.369 157.231 183.66 162.181 193.866 156.084Z" fill="#37474F"/>
<path d="M185.62 155.002C179.38 155.002 178.893 147.312 178.893 144.956C178.893 134.107 186.581 120.405 195.621 114.951C197.576 113.68 199.813 112.949 202.118 112.828C208.365 112.828 208.852 120.518 208.852 122.874C208.852 133.716 201.163 147.458 192.123 152.879C190.169 154.15 187.932 154.881 185.627 155.002H185.62Z" fill="#F5F5F5"/>
<path d="M187.882 149.541C183.058 149.541 182.68 143.709 182.68 141.924C182.68 133.961 188.311 123.856 194.974 119.875C196.44 118.923 198.116 118.377 199.844 118.289C204.675 118.289 205.046 124.121 205.046 125.906C205.046 133.868 199.421 143.974 192.758 147.955C191.29 148.908 189.612 149.454 187.882 149.541ZM199.844 118.979C198.228 119.066 196.662 119.583 195.295 120.478C188.805 124.353 183.32 134.187 183.32 141.95C183.32 143.583 183.654 148.904 187.882 148.904C189.499 148.817 191.068 148.3 192.437 147.404C198.928 143.529 204.405 133.689 204.405 125.933C204.405 124.287 204.079 118.979 199.844 118.979Z" fill="#E0E0E0"/>
<path d="M193.866 125.415C197.794 123.073 200.997 124.951 200.997 129.668C200.997 134.386 197.794 140.066 193.892 142.415C189.99 144.764 186.787 142.859 186.787 138.168C186.787 133.477 189.939 127.764 193.866 125.415Z" fill="#455A64"/>
<path d="M193.866 131.002C195.212 130.199 196.301 130.849 196.301 132.462C196.255 133.336 196.01 134.188 195.587 134.946C195.164 135.705 194.575 136.349 193.866 136.828C192.521 137.631 191.432 136.98 191.432 135.375C191.477 134.499 191.721 133.647 192.144 132.887C192.567 132.127 193.157 131.481 193.866 131.002Z" fill="#37474F"/>
<path d="M173.095 153.171L141.83 134.472C141.83 134.472 114.517 162.142 101.517 157.961C101.517 157.961 98.2179 193.792 113.569 196.897C128.92 200.003 149.018 180.521 156.38 172.659C163.741 164.796 173.095 153.171 173.095 153.171Z" fill="#FF6B00"/>
<path opacity="0.4" d="M173.095 153.171L141.83 134.472C141.83 134.472 114.517 162.142 101.517 157.961C101.517 157.961 98.2179 193.792 113.569 196.897C128.92 200.003 149.018 180.521 156.38 172.659C163.741 164.796 173.095 153.171 173.095 153.171Z" fill="black"/>
<path d="M205.43 95.6423C202.457 93.8309 191.181 87.1226 188.24 85.3642C185.078 83.4482 181.48 82.4383 177.816 82.4383C174.153 82.4383 170.555 83.4482 167.392 85.3642L149.998 95.5959C142.508 100.075 127.695 108.787 126.715 117.685C125.434 129.27 135.044 146.748 124.793 158.266L141.848 168.465L215.732 120.876V114.301C215.751 110.527 214.809 106.815 213 103.539C211.191 100.263 208.58 97.5391 205.43 95.6423Z" fill="#FF6B00"/>
<path opacity="0.2" d="M144.449 137.969C143.527 132.449 139.965 125.608 135.281 122.807L135.198 122.754C130.508 119.954 126.472 122.25 127.394 127.771C129.111 138.002 132.372 149.76 124.774 158.293L141.829 168.492C149.428 159.959 146.167 148.174 144.449 137.969Z" fill="black"/>
<path opacity="0.1" d="M184.435 95.5694L167.04 105.788C159.557 110.267 144.744 118.985 143.764 127.877C142.482 139.469 152.093 156.946 141.842 168.465L215.732 120.876V114.301C215.732 97.6794 198.331 87.2553 184.435 95.5694Z" fill="black"/>
<path d="M205.635 97.4339C200.587 94.4812 193.667 93.685 184.435 98.761C184.223 98.8672 184.012 98.9866 183.794 99.1127L183.083 99.5174C170.481 107.048 160.268 125.395 160.268 140.451C160.268 140.729 160.268 141.015 160.268 141.307C160.336 142.915 160.795 144.48 161.603 145.855C162.41 147.231 163.54 148.373 164.887 149.176C166.291 150.015 167.883 150.457 169.504 150.457C171.124 150.457 172.716 150.015 174.12 149.176L184.243 143.125L213.714 125.501L225.746 118.315C225.746 118.315 222.588 107.646 214.368 102.689C212.997 101.827 207.211 98.3562 205.635 97.4339Z" fill="#FF6B00"/>
<path d="M169.225 150.404C170.54 150.456 171.851 150.216 173.069 149.7C171.697 150.285 170.21 150.52 168.732 150.384C167.255 150.249 165.831 149.747 164.58 148.921C163.329 148.095 162.288 146.97 161.545 145.64C160.803 144.31 160.38 142.815 160.313 141.28C160.313 140.981 160.313 140.703 160.313 140.417C160.313 132.017 163.516 122.602 168.475 114.619L177.009 119.722C172.018 127.684 168.847 137.12 168.847 145.52C168.828 147.156 168.955 148.791 169.225 150.404Z" fill="#FF6B00"/>
<path opacity="0.1" d="M225.734 118.262V118.196V118.163C225.734 118.129 225.734 118.096 225.702 118.056V118.017L225.554 117.585C225.522 117.499 225.49 117.413 225.458 117.313V117.274C225.426 117.174 225.388 117.074 225.349 116.968C225.215 116.61 225.048 116.192 224.85 115.728V115.694C224.786 115.542 224.721 115.389 224.651 115.236C224.427 114.732 224.17 114.188 223.882 113.611L223.581 113.027C223.158 112.224 222.678 111.381 222.127 110.519C221.553 109.62 220.933 108.754 220.269 107.924C219.56 107.044 218.796 106.212 217.981 105.436C217.135 104.628 216.224 103.895 215.259 103.246L214.528 102.782L214.438 102.729L214.24 102.609C209.204 99.6899 202.297 98.9269 193.097 103.937C192.886 104.043 192.668 104.156 192.456 104.282L191.752 104.686C179.149 112.217 168.93 130.564 168.93 145.62C168.925 147.257 169.064 148.892 169.347 150.503C171.067 150.569 172.769 150.132 174.261 149.242L184.384 143.191L213.855 125.568L225.747 118.315L225.734 118.262Z" fill="black"/>
<path opacity="0.4" d="M214.015 102.45C208.986 99.5638 202.111 98.8339 192.975 103.837C192.763 103.943 192.546 104.056 192.334 104.182L191.629 104.587C186.043 107.904 180.93 113.372 176.97 119.722L168.437 114.619C172.39 108.269 177.509 102.822 183.095 99.4842L183.8 99.0794C184.012 98.96 184.223 98.8406 184.441 98.7344C193.673 93.6783 200.593 94.4812 205.641 97.4073C207.096 98.2965 212.215 101.355 214.015 102.45Z" fill="white"/>
<path d="M146.602 54.0721L157.013 47.8482C159.911 46.0919 163.208 45.1661 166.566 45.1661C169.924 45.1661 173.221 46.0919 176.119 47.8482L215.136 71.2045C212.241 69.4513 208.947 68.5272 205.593 68.5272C202.239 68.5272 198.946 69.4513 196.05 71.2045L185.62 77.4152L146.602 54.0721Z" fill="#F5F5F5"/>
<path d="M185.62 111.68V77.4152L196.051 71.2045C198.951 69.4622 202.244 68.5425 205.598 68.538C208.951 68.5335 212.246 69.4443 215.151 71.1788C218.057 72.9133 220.469 75.4101 222.146 78.4177C223.822 81.4253 224.704 84.8374 224.702 88.3103L185.62 111.68Z" fill="#EBEBEB"/>
<path d="M222.351 78.8086L209.063 86.771V92.9949L224.209 83.9377C223.83 82.1445 223.205 80.4171 222.351 78.8086Z" fill="#34A853"/>
<path d="M185.639 77.4152V111.647L146.602 88.3104V54.0721L185.639 77.4152Z" fill="#E0E0E0"/>
<path d="M185.639 106.982V100.758L146.602 77.4152V83.6391L185.639 106.982Z" fill="#FF6B00"/>
<path opacity="0.15" d="M185.639 106.982V100.758L146.602 77.4152V83.6391L185.639 106.982Z" fill="#34A853"/>
<path d="M121.929 110.565V109.291C121.958 108.739 122.103 108.199 122.353 107.71C122.603 107.221 122.952 106.794 123.377 106.458L151.753 86.406C152.196 86.1265 152.701 85.9693 153.219 85.9496C153.737 85.9298 154.252 86.0482 154.713 86.2932L174.427 98.0775C174.867 98.3754 175.233 98.7762 175.496 99.2477C175.758 99.7191 175.91 100.248 175.939 100.791V105.436C175.91 105.98 175.758 106.508 175.496 106.98C175.233 107.451 174.867 107.852 174.427 108.15L146.186 125.037C145.716 125.282 145.197 125.41 144.67 125.41C144.144 125.41 143.625 125.282 143.155 125.037L123.473 113.286C123.027 112.99 122.654 112.59 122.386 112.117C122.118 111.645 121.961 111.113 121.929 110.565Z" fill="#37474F"/>
<path d="M123.473 108.362L143.181 120.147C143.643 120.389 144.158 120.506 144.676 120.485C145.194 120.464 145.698 120.307 146.141 120.027L174.517 99.9752C174.696 99.8877 174.846 99.7479 174.949 99.573C175.051 99.3982 175.103 99.1959 175.096 98.9913C175.089 98.7866 175.024 98.5885 174.91 98.4214C174.796 98.2543 174.637 98.1255 174.453 98.051L154.739 86.2667C154.277 86.0216 153.763 85.9033 153.244 85.923C152.726 85.9428 152.222 86.0999 151.779 86.3795L123.403 106.431C123.222 106.519 123.071 106.659 122.967 106.835C122.863 107.011 122.812 107.215 122.819 107.421C122.827 107.627 122.893 107.826 123.009 107.994C123.125 108.161 123.287 108.289 123.473 108.362Z" fill="#455A64"/>
<path d="M144.674 120.505V125.442C144.145 125.454 143.623 125.326 143.155 125.07L123.474 113.286C123.032 112.988 122.664 112.586 122.401 112.113C122.137 111.641 121.984 111.11 121.955 110.565V109.291C121.984 108.772 122.112 108.265 122.332 107.798C122.552 107.331 122.859 106.913 123.236 106.571C123.092 106.68 122.979 106.828 122.91 106.999C122.84 107.169 122.816 107.356 122.84 107.54C122.864 107.723 122.936 107.896 123.047 108.041C123.159 108.186 123.306 108.297 123.474 108.362L143.181 120.147C143.636 120.409 144.154 120.533 144.674 120.505Z" fill="#263238"/>
<path d="M173.095 153.171C173.095 153.171 147.294 179.154 129.419 190.328V197.216C149.011 186.314 173.082 156.581 173.082 156.581L173.095 153.171Z" fill="#FF6B00"/>
<path d="M130.169 23.8416C129.919 26.31 131.86 29.329 134.481 30.311C137.101 31.2931 139.318 30.9281 141.842 29.7139C144.366 28.4996 146.666 26.8076 149.229 25.6796C152.255 24.3848 155.548 23.9011 158.802 24.2734C162.056 24.6457 165.167 25.8619 167.848 27.8095C165.885 27.6403 163.914 27.9999 162.126 28.8533C160.337 29.7067 158.792 31.025 157.641 32.6799C158.545 31.9259 159.608 31.4025 160.743 31.1519C161.878 30.9013 163.054 30.9305 164.177 31.2372C165.299 31.544 166.336 32.1196 167.204 32.9176C168.072 33.7157 168.747 34.7139 169.174 35.8316C170.027 38.3808 170.012 41.1559 169.129 43.6945C167.962 46.6278 166.016 49.1585 163.517 50.9933C158.135 54.8153 152.676 54.9347 146.154 55.1404C131.713 55.6049 117.65 43.2698 118.278 37.1322C118.905 30.9945 130.169 23.8416 130.169 23.8416Z" fill="#263238"/>
<path d="M109.403 51.3482C107.829 56.5414 101.108 74.2373 101.108 74.2373C101.108 74.2373 74.3163 69.9027 71.6308 69.7661C68.9453 69.6296 66.25 69.72 63.2259 72.1508C60.2018 74.5816 58.3012 75.4077 57.1972 76.9467C56.0931 78.4856 57.3001 78.7025 59.1686 78.183C60.8098 77.6046 62.3945 76.87 63.9009 75.9894C63.9009 75.9894 54.5256 87.7627 55.7235 89.5425C56.9214 91.3223 58.0521 91.6575 62.4469 90.9072C66.8418 90.1568 75.7751 79.1138 75.7751 79.1138C75.7751 79.1138 100.26 86.9589 102.963 87.7567C105.408 88.4979 107.487 85.9423 109.495 81.8254C111.503 77.7084 121.293 54.6466 121.293 54.6466L115.756 40.7688C112.726 43.6592 110.528 47.3181 109.403 51.3482Z" fill="#B16668"/>
<path d="M97.1154 107.261C95.0652 109.504 97.7561 120.253 100.485 129.821C103.215 139.389 110.019 157.795 110.019 157.795C110.019 157.795 110.23 160.45 114.017 160.171C118.309 159.872 117.611 156.999 117.611 156.999C117.611 156.999 116.695 146.94 116.029 139.668C115.362 132.395 114.952 120.054 111.371 115.655C106.175 109.49 97.1154 107.261 97.1154 107.261Z" fill="#B16668"/>
<path d="M120.469 165.426C120.892 165.426 120.603 167.284 120.392 167.523C119.892 168.074 118.284 168.644 116.766 168.989C115.247 169.334 113.178 170.184 112.102 172.307C111.025 174.43 109.5 178.013 104.298 178.398C99.0956 178.783 95.0465 176.746 94.5275 175.041C94.1623 173.84 94.5659 172.34 94.8414 172.24C95.1169 172.141 120.469 165.426 120.469 165.426Z" fill="#E0E0E0"/>
<path d="M108.955 175.173C111.082 173.481 111.755 170.449 113.991 168.85C115.047 168.217 116.169 167.709 117.336 167.337C118.47 166.866 119.29 166.786 120.392 165.884C120.741 164.534 120.665 163.104 120.174 161.803C119.734 160.834 119.368 159.832 119.078 158.804C118.854 158.021 118.732 157.417 118.585 156.813C118.521 156.541 118.553 155.984 117.521 155.931L117.617 156.979C117.054 159.421 112.031 158.884 110.025 157.775L109.551 156.588C108.648 156.588 109.192 158.28 108.334 159.521C107.554 160.672 106.687 161.757 105.739 162.765C104.926 163.714 104.048 164.601 103.112 165.419C100.94 167.111 98.4673 168.299 96.2505 169.911C95.5682 170.322 95.0246 170.941 94.6936 171.683C93.7069 174.543 97.3909 175.79 99.3642 176.361C102.363 177.277 106.393 177.224 108.955 175.173Z" fill="#37474F"/>
<path d="M107.283 176.162C107.283 176.162 107.841 169.971 102.632 168.545C101.462 168.215 100.249 168.078 99.0377 168.14C97.9449 168.372 96.9187 168.862 96.0393 169.573C95.3586 170.109 94.8351 170.83 94.5273 171.657C93.5406 174.516 97.1541 176.003 99.1274 176.58C101.823 177.31 104.67 177.164 107.283 176.162Z" fill="#F0F0F0"/>
<path d="M101.908 166.328C103.945 166.023 107.315 167.463 108.808 169.513C108.808 169.513 109.82 169.334 109.679 168.545C109.679 168.545 106.963 165.227 103.112 165.459C102.628 165.601 102.204 165.907 101.908 166.328Z" fill="#E0E0E0"/>
<path d="M104.682 163.94C106.72 163.634 108.866 164.457 111.089 166.547C111.295 166.462 111.468 166.306 111.578 166.106C111.689 165.906 111.731 165.674 111.698 165.446C111.698 165.446 108.821 162.453 105.528 162.978C105.176 163.224 104.886 163.554 104.682 163.94Z" fill="#E0E0E0"/>
<path d="M106.815 161.604C107.804 161.579 108.792 161.695 109.75 161.949C110.847 162.24 111.867 162.782 112.735 163.535C112.735 163.535 113.517 163.615 113.491 162.666C112.641 161.786 111.561 161.184 110.384 160.934C109.489 160.638 108.547 160.521 107.61 160.589C107.277 160.863 107.006 161.21 106.815 161.604Z" fill="#E0E0E0"/>
<path d="M118.508 119.968C116.9 124.307 118.117 131.825 120.865 141.406C121.698 144.293 122.948 147.935 124.069 151.837C127.176 160.463 130.777 169.367 130.777 169.367C130.777 169.367 130.988 172.022 134.775 171.743C139.067 171.451 138.369 168.571 138.369 168.571C138.369 168.571 137.453 158.512 136.787 151.24C136.12 143.967 135.71 131.626 132.129 127.233C126.907 121.062 118.508 119.968 118.508 119.968Z" fill="#B16668"/>
<path d="M141.214 177.025C141.637 177.025 141.349 178.882 141.137 179.121C140.637 179.672 139.029 180.243 137.511 180.594C135.992 180.946 133.923 181.782 132.847 183.879C131.77 185.976 130.245 189.585 125.043 189.97C119.841 190.355 115.785 188.318 115.273 186.613C114.907 185.412 115.311 183.919 115.587 183.812C115.862 183.706 141.214 177.025 141.214 177.025Z" fill="#E0E0E0"/>
<path d="M129.707 186.752C131.828 185.053 132.501 182.021 134.737 180.422C135.793 179.789 136.915 179.281 138.081 178.909C139.215 178.438 140.003 178.358 141.137 177.456C141.486 176.106 141.41 174.677 140.919 173.375C140.48 172.409 140.113 171.408 139.824 170.383C139.6 169.593 139.478 168.989 139.33 168.392C139.266 168.113 139.298 167.556 138.267 167.503L138.363 168.551C137.799 170.993 132.776 170.456 130.771 169.347L130.297 168.16C129.393 168.16 129.938 169.852 129.079 171.093C128.3 172.244 127.432 173.33 126.485 174.337C125.671 175.286 124.794 176.173 123.858 176.991C121.692 178.683 119.213 179.871 116.996 181.483C116.314 181.894 115.77 182.513 115.439 183.255C114.453 186.115 118.137 187.362 120.11 187.933C123.108 188.849 127.138 188.796 129.707 186.752Z" fill="#37474F"/>
<path d="M128.028 187.734C128.028 187.734 128.586 181.543 123.377 180.117C122.207 179.787 120.994 179.65 119.783 179.712C118.689 179.943 117.662 180.436 116.784 181.152C116.103 181.684 115.579 182.403 115.272 183.229C114.286 186.095 117.899 187.575 119.873 188.152C122.568 188.882 125.416 188.736 128.028 187.734Z" fill="#F0F0F0"/>
<path d="M122.653 177.907C124.691 177.595 128.061 179.035 129.554 181.085C129.554 181.085 130.566 180.906 130.425 180.117C130.425 180.117 127.708 176.799 123.858 177.031C123.373 177.176 122.95 177.485 122.653 177.907Z" fill="#E0E0E0"/>
<path d="M125.428 175.512C127.465 175.207 129.611 176.029 131.835 178.119C132.041 178.034 132.214 177.878 132.324 177.678C132.435 177.478 132.477 177.246 132.443 177.018C132.443 177.018 129.567 174.025 126.273 174.55C125.921 174.796 125.631 175.126 125.428 175.512Z" fill="#E0E0E0"/>
<path d="M127.529 173.176C128.518 173.15 129.506 173.267 130.464 173.521C131.561 173.812 132.581 174.354 133.449 175.107C133.449 175.107 134.231 175.187 134.205 174.238C133.355 173.358 132.275 172.756 131.098 172.506C130.203 172.21 129.261 172.093 128.324 172.161C127.992 172.437 127.721 172.783 127.529 173.176Z" fill="#E0E0E0"/>
<path d="M112.543 116.524L136.575 100.685L162.952 86.1538C162.952 86.1538 130.079 78.7953 127.49 81.0646C123.934 84.1765 107.821 95.158 100.101 102.41C96.7436 105.556 95.8338 107.553 95.8723 110.923C95.9299 115.568 101.728 136.045 104.515 142.309C104.515 142.309 111.377 144.498 116.048 139.654C116.048 139.654 115.503 130.325 115.144 125.641C114.785 120.956 113.606 118.149 112.581 116.51L112.543 116.524Z" fill="#FF6B00"/>
<path opacity="0.65" d="M112.543 116.524L136.575 100.685L162.952 86.1538C162.952 86.1538 130.079 78.7953 127.49 81.0646C123.934 84.1765 107.821 95.158 100.101 102.41C96.7436 105.556 95.8338 107.553 95.8723 110.923C95.9299 115.568 101.728 136.045 104.515 142.309C104.515 142.309 111.377 144.498 116.048 139.654C116.048 139.654 115.503 130.325 115.144 125.641C114.785 120.956 113.606 118.149 112.581 116.51L112.543 116.524Z" fill="white"/>
<path opacity="0.1" d="M126.51 104.341L112.543 116.524L136.576 100.685L146.417 95.4898L137.364 81.2504C132.296 80.5869 128.311 80.3413 127.491 81.0646C127.491 81.0646 128.817 89.4782 132.469 96.0073L126.51 104.341Z" fill="black"/>
<path d="M133.301 126.994C140.708 121.985 152.08 115.668 161.408 105.337C167.328 98.7809 166.092 89.1862 162.728 84.714C162.728 84.714 135.115 82.4447 127.49 81.0646C129.188 85.4041 131.918 91.6811 136.293 96.0073C130.309 102.311 122.282 113.398 118.585 117.864C116.663 120.18 116.503 124.552 116.893 127.379C117.355 130.697 121.724 145.513 124.063 151.837C126.411 152.439 128.847 152.581 131.245 152.255C133.275 152.058 135.185 151.166 136.671 149.72C136.671 149.72 136.287 140.212 135.704 135.567C135.121 130.922 134.506 128.819 133.301 126.994Z" fill="#FF6B00"/>
<path opacity="0.65" d="M133.301 126.994C140.708 121.985 152.08 115.668 161.408 105.337C167.328 98.7809 166.092 89.1862 162.728 84.714C162.728 84.714 135.115 82.4447 127.49 81.0646C129.188 85.4041 131.918 91.6811 136.293 96.0073C130.309 102.311 122.282 113.398 118.585 117.864C116.663 120.18 116.503 124.552 116.893 127.379C117.355 130.697 121.724 145.513 124.063 151.837C126.411 152.439 128.847 152.581 131.245 152.255C133.275 152.058 135.185 151.166 136.671 149.72C136.671 149.72 136.287 140.212 135.704 135.567C135.121 130.922 134.506 128.819 133.301 126.994Z" fill="white"/>
<path d="M124.755 37.0061C127.92 37.5104 136.812 38.8043 140.881 40.4764C143.873 41.7039 142.028 42.8717 144.725 45.4263C150.248 50.6616 149.293 65.173 155.405 72.8302C162.235 81.4163 165.118 85.5833 165.534 91.774C165.534 91.774 163.766 93.6054 157.782 89.3986C157.782 89.3986 145.481 94.2556 136.037 90.6195C126.715 87.0364 126.67 81.7281 126.67 81.7281L128.304 76.8844L119.783 68.6897C113.568 66.8385 109.718 63.3218 111.185 55.3395C112.319 49.1885 116.31 40.5759 116.31 40.5759L124.755 37.0061Z" fill="#37474F"/>
<path opacity="0.1" d="M124.325 67.6679C124.325 67.6679 129.053 71.2775 134.294 69.194C135.767 68.6675 137.084 67.7564 138.118 66.5487C139.152 65.341 139.867 63.8776 140.195 62.2999C140.195 62.2999 140.913 68.5504 134.288 70.8595C127.894 73.0956 124.325 67.6679 124.325 67.6679Z" fill="black"/>
<path opacity="0.1" d="M128.304 76.9042C130.277 78.656 134.621 80.7992 137.152 80.1025C135.343 80.6932 133.393 80.63 131.623 79.9233C128.631 78.7489 127.945 77.9327 127.945 77.9327L128.304 76.9042Z" fill="black"/>
<path d="M115.215 37.0592H115.901C120.465 37.2533 124.918 35.564 128.281 32.362C131.644 29.16 133.644 24.7068 133.84 19.9798C134.014 15.4244 132.439 10.983 129.461 7.62603C126.482 4.26909 122.342 2.2696 117.945 2.06449L116.022 1.97823C111.623 1.79831 107.333 3.42971 104.092 6.51578C100.85 9.60186 98.9203 13.8916 98.7239 18.4471C98.5277 23.18 100.155 27.7999 103.248 31.2903C106.34 34.7808 110.645 36.8559 115.215 37.0592Z" fill="#263238"/>
<path d="M104.073 11.0818C102.299 12.4554 100.473 17.6641 101.786 27.9953C102.895 36.7539 105.874 38.6118 107.315 39.0829C108.757 39.554 111.384 38.8772 113.921 38.1407L117.547 42.6394C117.547 42.6394 115.792 46.5012 117.143 47.4235C119.296 48.8899 124.313 47.2045 127.042 44.1058C128.523 42.4478 129.49 40.3674 129.816 38.134L124.883 30.729C125.519 31.0054 126.224 31.0617 126.894 30.8895C127.564 30.7174 128.161 30.326 128.599 29.7735C131.162 26.6947 130.386 23.3174 128.541 21.7581C126.696 20.1988 123.634 21.4661 123.217 23.9544C123.217 23.9544 119.52 24.1269 113.857 21.3002C107.713 18.175 105.931 14.6052 104.073 11.0818Z" fill="#B16668"/>
<path d="M110.877 24.4454C110.882 24.5942 110.916 24.7404 110.975 24.8758C111.035 25.0111 111.12 25.1329 111.226 25.234C111.331 25.3352 111.455 25.4137 111.59 25.4651C111.724 25.5166 111.868 25.5398 112.011 25.5336C112.301 25.5082 112.568 25.3658 112.757 25.1372C112.945 24.9086 113.039 24.6124 113.017 24.3127C113.009 24.1672 112.973 24.0248 112.911 23.8937C112.85 23.7626 112.764 23.6453 112.659 23.5486C112.553 23.4519 112.431 23.3776 112.298 23.3299C112.165 23.2823 112.024 23.2623 111.883 23.271C111.743 23.2797 111.605 23.317 111.479 23.3807C111.352 23.4444 111.239 23.5334 111.145 23.6424C111.052 23.7515 110.98 23.8785 110.934 24.0163C110.888 24.1541 110.869 24.2999 110.877 24.4454Z" fill="#263238"/>
<path d="M112.581 31.658L109.103 33.2504C109.192 33.4934 109.329 33.7151 109.504 33.9019C109.679 34.0887 109.888 34.2368 110.12 34.3373C110.352 34.4378 110.601 34.4885 110.852 34.4865C111.104 34.4844 111.352 34.4296 111.582 34.3254C112.049 34.1007 112.414 33.6975 112.601 33.2002C112.787 32.7029 112.78 32.1502 112.581 31.658Z" fill="#9A4A4D"/>
<path d="M101.991 21.8842L104.432 20.8491C104.373 20.6824 104.283 20.5296 104.166 20.3998C104.049 20.27 103.908 20.1658 103.751 20.0934C103.595 20.021 103.426 19.9819 103.254 19.9784C103.083 19.9748 102.913 20.0069 102.754 20.0728C102.425 20.2144 102.163 20.482 102.021 20.8196C101.878 21.1573 101.868 21.5387 101.991 21.8842Z" fill="#263238"/>
<path d="M111.211 20.5637L113.569 21.7913C113.651 21.6358 113.702 21.4649 113.72 21.2885C113.737 21.1122 113.72 20.9341 113.67 20.7646C113.62 20.5951 113.537 20.4378 113.428 20.3019C113.318 20.1659 113.183 20.0542 113.03 19.9732C112.712 19.8095 112.345 19.7796 112.006 19.8897C111.667 19.9997 111.382 20.2412 111.211 20.5637Z" fill="#263238"/>
<path d="M102.606 24.7572C102.611 24.906 102.645 25.0522 102.704 25.1876C102.764 25.3229 102.849 25.4447 102.955 25.5458C103.06 25.647 103.184 25.7255 103.319 25.777C103.454 25.8284 103.597 25.8517 103.74 25.8454C104.03 25.82 104.297 25.6776 104.486 25.449C104.674 25.2205 104.768 24.9242 104.746 24.6245C104.729 24.3307 104.6 24.0558 104.388 23.8604C104.175 23.6651 103.896 23.5652 103.612 23.5828C103.329 23.6004 103.063 23.734 102.874 23.9543C102.686 24.1745 102.589 24.4634 102.606 24.7572Z" fill="#263238"/>
<path d="M107.585 24.0805L108.11 30.749L104.618 30.039L107.585 24.0805Z" fill="#9A4A4D"/>
<path d="M113.921 38.1407C116.612 37.4772 122.045 35.1681 122.679 32.7728C122.451 33.9747 121.872 35.0751 121.02 35.9245C119.501 37.5966 115.337 39.9057 115.337 39.9057L113.921 38.1407Z" fill="#9A4A4D"/>
<path d="M138.991 40.4034C133.866 44.8225 136.07 52.5526 140.471 56.1954C144.117 59.2145 158.449 72.2463 158.449 72.2463L137.313 101.727C137.313 101.727 145.167 109.384 146.545 105.197C147.512 102.251 166.848 81.6618 168.809 79.1536C173.025 73.7657 174.408 71.5894 167.233 63.972C161.153 57.5159 145.456 37.9748 138.991 40.4034Z" fill="#B16668"/>
<path d="M130.245 31.22C125.991 37.4771 115.458 41.6707 112.633 42.175C109.807 42.6792 108.212 42.8385 105.329 41.2659C102.446 39.6933 100.312 36.3292 99.3064 32.3215C99.5688 33.2907 99.9728 34.2126 100.504 35.0553C102.427 37.862 104.989 39.4478 109.404 38.7312C113.818 38.0146 118.803 32.1755 120.936 27.3782C122.647 23.5762 124.735 14.9702 122.448 13.7493C121.525 13.2582 113.671 20.2121 104.791 19.0973C99.915 18.4869 98.922 16.3835 98.3838 15.4612C100.498 -0.131828 121.66 -5.44008 130.566 6.60302C139.471 18.6461 130.245 31.22 130.245 31.22Z" fill="#FF6B00"/>
<path opacity="0.45" d="M120.955 27.4114C118.803 32.2088 113.799 38.028 109.423 38.7645C105.047 39.501 102.452 37.8952 100.524 35.0885C99.9923 34.2459 99.5882 33.324 99.3259 32.3548C98.2303 28.6722 97.8074 22.6738 98.4481 15.4944C98.9607 16.4167 99.9537 18.5201 104.855 19.1306C113.735 20.2453 121.59 13.2915 122.512 13.7825C124.755 14.9702 122.666 23.5762 120.955 27.4114Z" fill="#FF6B00"/>
<path opacity="0.45" d="M120.955 27.4114C118.803 32.2088 113.799 38.028 109.423 38.7645C105.047 39.501 102.452 37.8952 100.524 35.0885C99.9923 34.2459 99.5882 33.324 99.3259 32.3548C98.2303 28.6722 97.8074 22.6738 98.4481 15.4944C98.9607 16.4167 99.9537 18.5201 104.855 19.1306C113.735 20.2453 121.59 13.2915 122.512 13.7825C124.755 14.9702 122.666 23.5762 120.955 27.4114Z" fill="black"/>
<path opacity="0.4" d="M115.1 0.107074C103.093 3.8693 101.19 13.7095 100.569 17.7902C101.88 18.5274 103.324 18.979 104.81 19.1173C106.559 19.3223 108.328 19.2552 110.057 18.9182C110.547 14.5505 112.209 10.4125 114.856 6.97463C116.196 5.19643 118 3.85321 120.054 3.10409C122.108 2.35498 124.326 2.23138 126.446 2.74793C123.049 0.594722 119.06 -0.333826 115.1 0.107074Z" fill="black"/>
<path d="M129.419 190.315C127.07 191.831 124.556 193.054 121.93 193.958C116.01 195.862 104.874 189.605 104.874 162.533C104.955 149.634 106.716 136.805 110.109 124.393C111.685 118.614 109.334 111.647 104.343 108.641L91.2534 100.818C86.2304 97.8121 79.4327 99.3714 76.8636 104.753C72.2058 114.513 66.2025 131.513 66.4524 153.973C66.6638 172.552 72.462 179.705 76.4791 183.759C81.201 188.53 99.5119 201.754 118.534 200.759C122.058 200.573 125.748 199.266 129.458 197.203" fill="#FF6B00"/>
<path opacity="0.2" d="M100.691 183.759C96.1481 174.151 93.5085 166.766 82.1106 159.965C73.3845 154.75 68.4255 157.795 67.5542 166.209C69.4763 176.029 73.4485 180.754 76.4277 183.759C81.1496 188.53 99.4605 201.754 118.482 200.759C110.564 200.759 105.239 193.367 100.691 183.759Z" fill="black"/>
<path opacity="0.2" d="M91.5925 146.728C91.5138 147.275 91.3248 147.798 91.0378 148.265C90.7508 148.731 90.3723 149.13 89.9267 149.435L87.2679 151.027C86.8657 151.266 86.3887 151.33 85.941 151.206C85.4932 151.081 85.1112 150.779 84.8781 150.364L80.9443 143.304C80.4215 142.264 80.1802 141.097 80.2459 139.926C80.8866 133.955 83.5135 114.281 91.4388 100.964L102.811 107.739C102.811 107.739 93.5851 126.098 91.5925 146.728Z" fill="black"/>
<path d="M90.7981 146.263C90.7179 146.811 90.5283 147.335 90.2415 147.802C89.9547 148.269 89.5769 148.67 89.1323 148.977L86.4734 150.563C86.2744 150.682 86.0548 150.759 85.827 150.79C85.5992 150.821 85.3677 150.806 85.1458 150.744C84.9239 150.682 84.7158 150.576 84.5336 150.431C84.3513 150.286 84.1985 150.105 84.0836 149.899L80.169 142.866C79.6467 141.828 79.4032 140.664 79.4643 139.495C80.105 133.523 82.7382 113.843 90.6635 100.533L102.036 107.307C102.036 107.307 92.8034 125.614 90.7981 146.263Z" fill="#FF6B00"/>
<path opacity="0.2" d="M90.7981 146.263C90.7179 146.811 90.5283 147.335 90.2415 147.802C89.9547 148.269 89.5769 148.67 89.1323 148.977L86.4734 150.563C86.2744 150.682 86.0548 150.759 85.827 150.79C85.5992 150.821 85.3677 150.806 85.1458 150.744C84.9239 150.682 84.7158 150.576 84.5336 150.431C84.3513 150.286 84.1985 150.105 84.0836 149.899L80.169 142.866C79.6467 141.828 79.4032 140.664 79.4643 139.495C80.105 133.523 82.7382 113.843 90.6635 100.533L102.036 107.307C102.036 107.307 92.8034 125.614 90.7981 146.263Z" fill="white"/>
<path d="M89.1967 140.723C89.1399 140.725 89.084 140.708 89.0365 140.676L81.9889 136.463C81.9157 136.417 81.8627 136.344 81.8411 136.258C81.8196 136.173 81.8312 136.082 81.8736 136.005C81.8942 135.967 81.9219 135.934 81.9551 135.907C81.9883 135.88 82.0264 135.861 82.067 135.85C82.1077 135.839 82.15 135.836 82.1916 135.842C82.2333 135.848 82.2732 135.863 82.3093 135.886L89.3568 140.106C89.4296 140.15 89.4825 140.222 89.5041 140.307C89.5256 140.391 89.5142 140.481 89.4721 140.557C89.4442 140.607 89.4041 140.649 89.3557 140.678C89.3074 140.707 89.2526 140.722 89.1967 140.723Z" fill="#455A64"/>
<path d="M88.7164 142.992C88.6607 142.992 88.606 142.978 88.5562 142.952L82.207 139.15C82.1661 139.131 82.1296 139.103 82.0998 139.069C82.07 139.034 82.0475 138.993 82.0338 138.949C82.0201 138.905 82.0156 138.858 82.0204 138.812C82.0253 138.766 82.0394 138.721 82.062 138.681C82.0845 138.641 82.1149 138.606 82.1512 138.579C82.1875 138.552 82.229 138.533 82.2728 138.523C82.3167 138.514 82.362 138.514 82.4058 138.523C82.4497 138.533 82.4911 138.552 82.5273 138.58L88.8765 142.375C88.9367 142.412 88.9835 142.468 89.0098 142.535C89.0362 142.602 89.0406 142.676 89.0224 142.746C89.0043 142.816 88.9646 142.878 88.9093 142.922C88.854 142.967 88.7863 142.991 88.7164 142.992Z" fill="#455A64"/>
<path d="M88.2359 145.268C88.1792 145.269 88.1235 145.253 88.0757 145.221L82.4697 141.844C82.4288 141.825 82.3923 141.797 82.3625 141.763C82.3326 141.728 82.3102 141.687 82.2965 141.643C82.2828 141.599 82.2783 141.552 82.2831 141.506C82.288 141.46 82.3021 141.415 82.3247 141.375C82.3472 141.335 82.3776 141.3 82.4139 141.273C82.4502 141.246 82.4917 141.227 82.5355 141.217C82.5794 141.208 82.6247 141.208 82.6685 141.217C82.7124 141.227 82.7538 141.246 82.79 141.273L88.4345 144.644C88.5076 144.69 88.5607 144.763 88.5822 144.849C88.6038 144.934 88.5922 145.025 88.5498 145.102C88.5189 145.158 88.4726 145.204 88.4168 145.234C88.361 145.263 88.2981 145.275 88.2359 145.268Z" fill="#455A64"/>
<path d="M87.7679 147.511C87.7116 147.529 87.6512 147.529 87.5949 147.511L82.6552 144.558C82.6144 144.539 82.5778 144.511 82.548 144.476C82.5182 144.442 82.4957 144.401 82.4821 144.357C82.4684 144.313 82.4638 144.266 82.4687 144.22C82.4735 144.174 82.4877 144.129 82.5102 144.089C82.5327 144.049 82.5631 144.014 82.5995 143.987C82.6358 143.96 82.6772 143.941 82.7211 143.931C82.7649 143.921 82.8103 143.921 82.8541 143.931C82.8979 143.941 82.9393 143.96 82.9755 143.987L87.9153 146.94C87.9754 146.977 88.0222 147.033 88.0485 147.1C88.0749 147.167 88.0793 147.242 88.0612 147.311C88.043 147.381 88.0033 147.443 87.948 147.488C87.8928 147.532 87.825 147.556 87.7551 147.557L87.7679 147.511Z" fill="#455A64"/>
<path d="M97.3847 148.685L100.018 150.264C100.46 150.558 100.828 150.958 101.089 151.431C101.35 151.903 101.497 152.434 101.517 152.978C101.482 154.478 101.358 155.973 101.146 157.457C100.917 158.992 100.193 160.402 99.0909 161.455C97.9887 162.509 96.574 163.144 95.0782 163.256H94.9949C94.809 163.276 94.621 163.252 94.4454 163.186C94.2698 163.119 94.1111 163.012 93.9814 162.873C93.8517 162.734 93.7544 162.565 93.6969 162.381C93.6394 162.197 93.6231 162.001 93.6495 161.81C94.5672 157.777 95.2518 153.691 95.6997 149.574C95.6932 149.369 95.7433 149.166 95.8442 148.989C95.9451 148.812 96.0925 148.668 96.2693 148.575C96.4461 148.482 96.6449 148.443 96.8425 148.462C97.04 148.482 97.2281 148.559 97.3847 148.685Z" fill="#FAFAFA"/>
<path d="M74.9159 135.242L72.9939 134.107C72.8195 133.997 72.622 133.931 72.4179 133.915C72.2139 133.9 72.0092 133.935 71.821 134.018C71.6329 134.101 71.4667 134.23 71.3363 134.393C71.2059 134.556 71.1153 134.75 71.0718 134.957C70.5756 137.025 70.2921 139.143 70.2261 141.273C70.2261 145.633 71.6356 148.539 72.571 149.568C73.5064 150.596 75.1337 151.326 75.0889 150.059C75.0131 145.99 75.3524 141.924 76.1012 137.929C76.1737 137.411 76.1006 136.882 75.8904 136.405C75.6802 135.928 75.3419 135.525 74.9159 135.242Z" fill="#FAFAFA"/>
<path d="M123.723 192.916C125.703 192.252 127.617 191.392 129.438 190.348C127.074 191.839 124.555 193.05 121.929 193.958C116.009 195.869 104.874 189.605 104.874 162.526C104.955 149.629 106.716 136.803 110.109 124.393C111.685 118.62 109.333 111.647 104.342 108.641C100.223 106.179 95.3727 103.273 91.2467 100.818C89.7898 99.9453 88.1575 99.4343 86.4778 99.325C84.7982 99.2156 83.1169 99.5108 81.5659 100.187C83.2469 99.007 85.2154 98.3415 87.2452 98.2676C89.2749 98.1936 91.2837 98.7142 93.0406 99.7695L106.123 107.593C111.153 110.598 113.504 117.545 111.928 123.351C108.532 135.76 106.771 148.587 106.694 161.485C106.668 188.563 117.797 194.814 123.723 192.916Z" fill="#FF6B00"/>
<path opacity="0.1" d="M123.723 192.916C117.797 194.814 106.668 188.563 106.668 161.485C106.746 148.587 108.506 135.76 111.903 123.351C112.599 120.662 112.532 117.822 111.71 115.17L109.936 116.258C110.745 118.897 110.805 121.72 110.109 124.393C106.723 136.804 104.968 149.63 104.894 162.526C104.894 189.605 116.029 195.869 121.949 193.958C124.574 193.05 127.093 191.839 129.458 190.348C127.63 191.393 125.71 192.253 123.723 192.916Z" fill="black"/>
<path opacity="0.4" d="M106.098 107.593L93.0153 99.7695C91.2583 98.7142 89.2496 98.1936 87.2198 98.2676C85.19 98.3415 83.2215 99.007 81.5405 100.187C83.0915 99.5108 84.7728 99.2156 86.4524 99.325C88.1321 99.4343 89.7644 99.9453 91.2213 100.818C95.3474 103.273 100.191 106.179 104.317 108.641C107.041 110.366 109.045 113.083 109.936 116.258L111.711 115.17C110.819 112.007 108.817 109.304 106.098 107.593Z" fill="white"/>
<path d="M92.7205 187.986C89.9655 178.657 78.715 170.94 68.1885 173.992C66.5273 174.476 64.9336 175.181 63.4474 176.089C53.2413 182.187 44.97 197.023 44.97 209.232C44.9436 211.284 45.2224 213.327 45.7965 215.29C48.5514 224.58 59.8019 232.283 70.3284 229.225C71.9843 228.74 73.5734 228.038 75.0567 227.134C85.2628 221.03 93.5341 206.193 93.5341 193.991C93.5571 191.958 93.2828 189.934 92.7205 187.986Z" fill="#455A64"/>
<path d="M75.0307 227.134C85.2368 221.03 93.5081 206.193 93.5081 193.991C93.5081 181.789 85.2368 176.832 75.0307 182.93C64.8245 189.028 56.5532 203.864 56.5532 216.107C56.5532 228.349 64.8245 233.246 75.0307 227.134Z" fill="#37474F"/>
<path d="M66.779 226.066C60.5387 226.066 60.0518 218.376 60.0518 216.02C60.0518 205.172 67.74 191.436 76.7801 186.015C78.7349 184.744 80.9716 184.013 83.2767 183.892C89.5234 183.892 90.0103 191.582 90.0103 193.938C90.0103 204.78 82.3221 218.489 73.282 223.943C71.3272 225.214 69.0905 225.945 66.7854 226.066H66.779Z" fill="#F5F5F5"/>
<path d="M69.0466 220.605C64.2222 220.605 63.8442 214.773 63.8442 212.988C63.8442 205.026 69.4759 194.92 76.139 190.939C77.6044 189.988 79.2809 189.442 81.0083 189.353C85.8391 189.353 86.2171 195.185 86.2171 196.97C86.2171 204.933 80.5854 215.038 73.9223 219.019C72.455 219.972 70.7762 220.518 69.0466 220.605ZM81.0083 190.016C79.3929 190.104 77.8264 190.62 76.4594 191.516C69.9692 195.391 64.4849 205.225 64.4849 212.988C64.4849 214.62 64.8181 219.942 69.0466 219.942C70.664 219.854 72.2327 219.338 73.6019 218.442C80.0921 214.567 85.5764 204.734 85.5764 196.97C85.5764 195.338 85.2432 190.016 81.0083 190.016Z" fill="#E0E0E0"/>
<path d="M75.031 196.479C78.9584 194.137 82.1362 196.035 82.1362 200.732C82.1362 205.43 78.9328 211.13 75.031 213.479C71.1292 215.828 67.9258 213.924 67.9258 209.232C67.9258 204.541 71.1036 198.828 75.031 196.479Z" fill="#455A64"/>
<path d="M75.0308 202.066C76.3763 201.263 77.4654 201.914 77.4654 203.526C77.4194 204.401 77.175 205.252 76.752 206.01C76.329 206.769 75.7394 207.414 75.0308 207.892C73.6854 208.695 72.5962 208.045 72.5962 206.439C72.6417 205.563 72.8858 204.711 73.3088 203.951C73.7318 203.191 74.3218 202.546 75.0308 202.066Z" fill="#37474F"/>
<path d="M89.9204 175.671C87.4025 174.158 78.0356 168.73 75.7291 167.198C71.7248 164.544 66.0675 164.756 59.7824 168.525C53.6894 172.161 48.1988 178.445 44.2265 185.617C43.9324 186.152 43.8549 186.785 44.011 187.378C44.1672 187.972 44.5442 188.477 45.0594 188.782C48.218 190.654 54.407 194.323 57.7514 196.38C61.5955 198.735 70.751 192.823 79.7462 193.726C81.2581 193.858 82.7442 194.211 84.1606 194.774C90.2279 197.216 92.3165 198.052 94.5974 197.196C94.9605 197.053 95.2801 196.812 95.5234 196.498C95.7666 196.184 95.9247 195.809 95.9813 195.411C96.2215 193.755 96.3436 192.083 96.3465 190.408C96.3465 183.136 93.899 178.033 89.9204 175.671Z" fill="#FF6B00"/>
<path opacity="0.3" d="M89.9208 175.671C87.4029 174.158 78.036 168.73 75.7296 167.198C71.7253 164.544 66.068 164.756 59.7828 168.525C56.6628 170.437 53.8288 172.811 51.3706 175.571L82.5785 194.23C83.1152 194.373 83.6435 194.548 84.161 194.754C90.2283 197.196 92.317 198.032 94.5978 197.176C94.9609 197.033 95.2805 196.792 95.5238 196.478C95.7671 196.164 95.9251 195.789 95.9817 195.391C96.2219 193.735 96.344 192.063 96.3469 190.388C96.3469 183.136 93.8995 178.033 89.9208 175.671Z" fill="white"/>
<path d="M96.3465 190.381C96.3367 192.462 96.1524 194.538 95.7955 196.585C92.9124 198.264 91.2595 197.607 84.1606 194.747C82.7443 194.184 81.2581 193.831 79.7463 193.699C70.7767 192.817 61.5892 198.729 57.7515 196.353C59.8177 192.234 62.3819 188.403 65.3821 184.954C67.9906 181.918 71.0355 179.318 74.4094 177.244C76.3924 176.035 78.539 175.14 80.7778 174.589C84.276 173.76 87.4025 174.171 89.9204 175.684C93.8991 178.033 96.3465 183.136 96.3465 190.381Z" fill="#FF6B00"/>
<path opacity="0.1" d="M96.3465 190.381C96.3367 192.462 96.1524 194.538 95.7955 196.585C92.9124 198.264 91.2595 197.607 84.1606 194.747C82.7443 194.184 81.2581 193.831 79.7463 193.699C70.7767 192.817 61.5892 198.729 57.7515 196.353C59.8177 192.234 62.3819 188.403 65.3821 184.954C67.9906 181.918 71.0355 179.318 74.4094 177.244C76.3924 176.035 78.539 175.14 80.7778 174.589C84.276 173.76 87.4025 174.171 89.9204 175.684C93.8991 178.033 96.3465 183.136 96.3465 190.381Z" fill="black"/>
<path d="M72.3591 73.5933L74.8642 69.1144L64.28 62.791C64.0758 62.6912 63.8497 62.649 63.6247 62.6688C63.3997 62.6886 63.1837 62.7697 62.9987 62.9038C62.4851 63.252 62.058 63.7206 61.7519 64.2716C61.4458 64.8227 61.2693 65.4406 61.2368 66.0754C61.2152 66.2966 61.2493 66.5199 61.3357 66.7233C61.4222 66.9268 61.558 67.1037 61.7301 67.2366L72.3591 73.5933Z" fill="#455A64"/>
<path d="M71.8467 72.4121C71.8467 73.5733 72.6347 74.0511 73.6086 73.4672C74.123 73.1193 74.5511 72.6509 74.8583 72.0999C75.1654 71.5489 75.3431 70.9308 75.3769 70.2955C75.3769 69.1343 74.5824 68.6565 73.6086 69.2405C73.095 69.5887 72.6679 70.0573 72.3618 70.6083C72.0557 71.1594 71.8792 71.7773 71.8467 72.4121Z" fill="#37474F"/>
<path d="M80.0542 75.9089L80.7333 74.688L74.0253 70.667C73.9703 70.639 73.9088 70.6273 73.8478 70.6332C73.7868 70.639 73.7285 70.6622 73.6793 70.7002C73.5387 70.794 73.4218 70.9212 73.3382 71.0712C73.2546 71.2212 73.2068 71.3898 73.1988 71.5628C73.1933 71.6233 73.2027 71.6843 73.2263 71.74C73.2498 71.7958 73.2867 71.8444 73.3333 71.8813L80.0542 75.9089Z" fill="#F0F0F0"/>
<path d="M79.9067 75.5838C79.9067 75.9023 80.1246 76.0283 80.3873 75.8757C80.528 75.7805 80.6449 75.652 80.7284 75.5009C80.812 75.3498 80.8597 75.1804 80.8678 75.0065C80.8678 74.688 80.6563 74.5619 80.3873 74.7212C80.2477 74.8162 80.1316 74.9436 80.0482 75.0934C79.9647 75.2432 79.9163 75.4111 79.9067 75.5838Z" fill="#E0E0E0"/>
<path d="M114.465 103.246C112.287 103.154 107.649 104.381 106.098 107.593L93.0152 99.7695C93.0152 99.7695 94.4055 93.6783 85.5063 86.5652L114.465 103.246Z" fill="#FF6B00"/>
<path opacity="0.2" d="M114.465 103.246C112.287 103.154 107.649 104.381 106.098 107.593L93.0152 99.7695C93.0152 99.7695 94.4055 93.6783 85.5063 86.5652L114.465 103.246Z" fill="black"/>
<path d="M105.194 99.9288L125.703 107.281V102.444L109.525 92.7693L105.194 99.9288Z" fill="#FF6B00"/>
<path d="M113.568 90.3474L129.746 100.022L125.703 102.444L109.525 92.7693L113.568 90.3474Z" fill="#FF6B00"/>
<path opacity="0.4" d="M113.568 90.3474L129.746 100.022L125.703 102.444L109.525 92.7693L113.568 90.3474Z" fill="white"/>
<path d="M125.703 107.281L129.746 104.859V100.022L125.703 102.444V107.281Z" fill="#FF6B00"/>
<path opacity="0.1" d="M125.703 107.281L129.746 104.859V100.022L125.703 102.444V107.281Z" fill="black"/>
<path d="M92.3038 82.5044L76.1265 72.8302L80.1692 70.4083L96.3466 80.0826L92.3038 82.5044Z" fill="#FF6B00"/>
<path opacity="0.4" d="M92.3038 82.5044L76.1265 72.8302L80.1692 70.4083L96.3466 80.0826L92.3038 82.5044Z" fill="white"/>
<path d="M76.1201 77.6673L88.2612 89.7568L92.3039 82.5044L76.1265 72.8301L76.1201 77.6673Z" fill="#FF6B00"/>
<path d="M110.66 86.8771C109.881 85.9936 108.986 85.2275 108.001 84.6012L94.8541 76.7384C94.4228 76.4995 93.9272 76.4155 93.4449 76.4996C92.9626 76.5836 92.5209 76.831 92.1888 77.2028L90.4398 79.3062C89.7125 80.2322 89.1308 81.2713 88.7163 82.385L85.8204 91.0574C85.6738 91.5395 85.6869 92.0586 85.8575 92.5322C86.0281 93.0058 86.3465 93.4068 86.7622 93.6717L99.9091 101.535C100.379 101.78 100.898 101.908 101.424 101.908C101.951 101.908 102.47 101.78 102.94 101.535L103.958 100.931C104.918 100.295 105.734 99.4502 106.348 98.4558L108.642 94.3352C109.249 93.3349 110.066 92.489 111.031 91.8603L113.562 90.3474L110.66 86.8771Z" fill="#FF6B00"/>
<path opacity="0.1" d="M110.66 86.8771C109.881 85.9936 108.986 85.2275 108.001 84.6012L94.8541 76.7384C94.4228 76.4995 93.9272 76.4155 93.4449 76.4996C92.9626 76.5836 92.5209 76.831 92.1888 77.2028L90.4398 79.3062C89.7125 80.2322 89.1308 81.2713 88.7163 82.385L85.8204 91.0574C85.6738 91.5395 85.6869 92.0586 85.8575 92.5322C86.0281 93.0058 86.3465 93.4068 86.7622 93.6717L99.9091 101.535C100.379 101.78 100.898 101.908 101.424 101.908C101.951 101.908 102.47 101.78 102.94 101.535L103.958 100.931C104.918 100.295 105.734 99.4502 106.348 98.4558L108.642 94.3352C109.249 93.3349 110.066 92.489 111.031 91.8603L113.562 90.3474L110.66 86.8771Z" fill="black"/>
<path d="M106.623 88.9805L108.379 86.8771C108.528 86.715 108.639 86.519 108.703 86.3047C108.766 86.0904 108.78 85.8637 108.744 85.6427C108.708 85.4216 108.623 85.2124 108.495 85.0316C108.367 84.8508 108.2 84.7034 108.007 84.6012L94.8604 76.7384C94.4291 76.4995 93.9335 76.4155 93.4512 76.4996C92.9689 76.5836 92.5271 76.831 92.1951 77.2028L90.446 79.3062C90.2963 79.4679 90.1851 79.6635 90.1212 79.8775C90.0572 80.0915 90.0424 80.318 90.0779 80.539C90.1133 80.76 90.1981 80.9693 90.3254 81.1504C90.4527 81.3315 90.619 81.4793 90.8112 81.5822L103.965 89.445C104.395 89.6834 104.889 89.7671 105.371 89.683C105.852 89.599 106.292 89.3519 106.623 88.9805Z" fill="#FF6B00"/>
<path d="M104.894 92.0593L101.991 100.732C101.93 100.947 101.822 101.144 101.674 101.308C101.527 101.471 101.344 101.597 101.141 101.675C100.939 101.753 100.721 101.781 100.506 101.757C100.291 101.732 100.084 101.656 99.9028 101.535L86.7559 93.6717C86.3402 93.4068 86.0217 93.0058 85.8511 92.5322C85.6805 92.0586 85.6675 91.5395 85.814 91.0574L88.71 82.385C88.771 82.1701 88.8796 81.9729 89.0272 81.8091C89.1747 81.6453 89.3572 81.5194 89.56 81.4414C89.7628 81.3635 89.9803 81.3356 90.1954 81.36C90.4104 81.3845 90.6169 81.4605 90.7986 81.5821L103.952 89.445C104.366 89.7115 104.683 90.1127 104.853 90.5858C105.024 91.0588 105.038 91.577 104.894 92.0593Z" fill="#455A64"/>
<path d="M100.62 100.28L87.4669 92.4375C87.3335 92.3398 87.2315 92.2027 87.1744 92.0441C87.1172 91.8855 87.1076 91.7128 87.1466 91.5484L90.0489 82.876V82.8296L103.241 90.719C103.374 90.8156 103.475 90.9516 103.532 91.109C103.59 91.2664 103.6 91.4381 103.561 91.6015L100.665 100.274C100.667 100.289 100.667 100.305 100.665 100.32C100.655 100.317 100.646 100.312 100.638 100.305C100.631 100.299 100.624 100.29 100.62 100.28Z" fill="#EBEBEB"/>
<path d="M90.6636 84.2496L88.2354 91.6679L99.9856 98.7809L100.485 97.4074C100.485 97.4074 94.0784 94.0433 92.3037 91.5551C90.529 89.0668 90.6636 84.2496 90.6636 84.2496Z" fill="#FAFAFA"/>
<path d="M96.4554 92.2052C96.4168 92.3667 96.3423 92.5166 96.2378 92.643C96.1334 92.7694 96.0019 92.8688 95.8538 92.9332C95.7057 92.9977 95.5451 93.0254 95.3848 93.0142C95.2245 93.003 95.069 92.9532 94.9306 92.8688C94.63 92.6617 94.4041 92.3573 94.2881 92.0032C94.1722 91.649 94.1728 91.2651 94.2899 90.9114C94.3273 90.7491 94.4012 90.5982 94.5054 90.471C94.6096 90.3438 94.7414 90.2438 94.8899 90.1792C95.0384 90.1146 95.1996 90.0871 95.3602 90.099C95.5209 90.111 95.6766 90.1619 95.8148 90.2478C96.1171 90.4533 96.3444 90.7576 96.4604 91.1123C96.5765 91.467 96.5748 91.8517 96.4554 92.2052Z" fill="#E0E0E0"/>
<path d="M134.365 108.316L135.044 107.095L128.304 103.054C128.249 103.027 128.187 103.017 128.127 103.022C128.066 103.028 128.008 103.051 127.958 103.087C127.817 103.181 127.7 103.308 127.617 103.458C127.533 103.608 127.485 103.777 127.477 103.95C127.471 104.01 127.48 104.072 127.504 104.127C127.528 104.183 127.565 104.232 127.612 104.268L134.365 108.316Z" fill="#F0F0F0"/>
<path d="M134.192 107.997C134.192 108.309 134.41 108.442 134.672 108.283C134.813 108.189 134.93 108.062 135.014 107.912C135.097 107.762 135.145 107.593 135.153 107.42C135.153 107.102 134.941 106.969 134.672 107.128C134.533 107.224 134.417 107.353 134.333 107.504C134.25 107.655 134.201 107.824 134.192 107.997Z" fill="#E0E0E0"/>
<path d="M141.842 114.998L144.341 110.519L133.763 104.195C133.559 104.095 133.332 104.053 133.107 104.073C132.882 104.093 132.666 104.174 132.481 104.308C131.968 104.656 131.541 105.125 131.235 105.676C130.929 106.227 130.752 106.845 130.72 107.48C130.697 107.701 130.731 107.924 130.818 108.128C130.904 108.332 131.04 108.508 131.213 108.641L141.842 114.998Z" fill="#455A64"/>
<path d="M141.323 113.79C141.323 114.951 142.118 115.429 143.092 114.845C143.606 114.497 144.034 114.029 144.341 113.478C144.648 112.927 144.826 112.309 144.86 111.673C144.86 110.512 144.065 110.034 143.092 110.618C142.577 110.966 142.149 111.435 141.842 111.986C141.535 112.537 141.357 113.155 141.323 113.79Z" fill="#263238"/>
<path d="M141.323 96.4188C140.272 97.9582 136.319 99.6634 133.846 102.271C131.591 104.653 130.643 110.068 131.873 112.29C133.103 114.513 137.063 116.57 138.985 116.019C139.831 115.738 140.606 115.264 141.253 114.633L139.709 113.671C139.709 113.671 138.933 111.249 141.323 108.661L143.796 110.141C145.155 108.402 146.359 107.679 146.545 105.177L141.323 96.4188Z" fill="#B16668"/>
</svg>
